<?xml version="1.0" encoding="UTF-8"?>
<svg version="1.1" xmlns="http://www.w3.org/2000/svg" width="643" height="643">
<path d="M0 0 C212.19 0 424.38 0 643 0 C643 212.19 643 424.38 643 643 C430.81 643 218.62 643 0 643 C0 430.81 0 218.62 0 0 Z " fill="#FEFEFE" transform="translate(0,0)"/>
<path d="M0 0 C40.92 0 81.84 0 124 0 C124 39.6 124 79.2 124 120 C162.28 120 200.56 120 240 120 C240 160.92 240 201.84 240 244 C201.72 244 163.44 244 124 244 C124 351.58 124 459.16 124 570 C83.08 570 42.16 570 0 570 C0 462.42 0 354.84 0 244 C-38.28 244 -76.56 244 -116 244 C-116 203.08 -116 162.16 -116 120 C-77.72 120 -39.44 120 0 120 C0 80.4 0 40.8 0 0 Z " fill="#030303" transform="translate(262,37)"/>
<path d="M0 0 C40.92 0 81.84 0 124 0 C124 39.6 124 79.2 124 120 C162.28 120 200.56 120 240 120 C240 160.92 240 201.84 240 244 C201.72 244 163.44 244 124 244 C124 351.58 124 459.16 124 570 C83.08 570 42.16 570 0 570 C0 462.42 0 354.84 0 244 C-38.28 244 -76.56 244 -116 244 C-116 203.08 -116 162.16 -116 120 C-77.72 120 -39.44 120 0 120 C0 80.4 0 40.8 0 0 Z M19 19 C19 58.6 19 98.2 19 139 C-19.28 139 -57.56 139 -97 139 C-97 167.38 -97 195.76 -97 225 C-58.72 225 -20.44 225 19 225 C19 332.58 19 440.16 19 551 C47.38 551 75.76 551 105 551 C105 443.42 105 335.84 105 225 C143.28 225 181.56 225 221 225 C221 196.62 221 168.24 221 139 C182.72 139 144.44 139 105 139 C105 99.4 105 59.8 105 19 C76.62 19 48.24 19 19 19 Z " fill="#040404" transform="translate(262,37)"/>
<path d="M0 0 C28.38 0 56.76 0 86 0 C86 39.6 86 79.2 86 120 C124.28 120 162.56 120 202 120 C202 148.38 202 176.76 202 206 C163.72 206 125.44 206 86 206 C86 313.58 86 421.16 86 532 C57.62 532 29.24 532 0 532 C0 424.42 0 316.84 0 206 C-38.28 206 -76.56 206 -116 206 C-116 177.62 -116 149.24 -116 120 C-77.72 120 -39.44 120 0 120 C0 80.4 0 40.8 0 0 Z M10 10 C10 49.6 10 89.2 10 130 C-28.28 130 -66.56 130 -106 130 C-106 151.45 -106 172.9 -106 195 C-67.39 195 -28.78 195 11 195 C11 302.91 11 410.82 11 522 C32.12 522 53.24 522 75 522 C75 414.09 75 306.18 75 195 C113.61 195 152.22 195 192 195 C192 173.55 192 152.1 192 130 C153.72 130 115.44 130 76 130 C76 90.4 76 50.8 76 10 C54.22 10 32.44 10 10 10 Z " fill="#F2F2F2" transform="translate(281,56)"/>
<path d="M0 0 C3.96 0 7.92 0 12 0 C12 39.93 12 79.86 12 121 C50.61 121 89.22 121 129 121 C129 124.96 129 128.92 129 133 C90.39 133 51.78 133 12 133 C12 240.91 12 348.82 12 460 C8.04 460 4.08 460 0 460 C0 352.09 0 244.18 0 133 C-38.61 133 -77.22 133 -117 133 C-117 129.04 -117 125.08 -117 121 C-78.39 121 -39.78 121 0 121 C0 81.07 0 41.14 0 0 Z " fill="#FAFAFA" transform="translate(318,92)"/>
</svg>
