<?xml version="1.0" encoding="UTF-8"?>
<svg version="1.1" xmlns="http://www.w3.org/2000/svg" width="499" height="500">
<path d="M0 0 C0.90330048 0.00182281 1.80660095 0.00364563 2.73727417 0.00552368 C16.34337677 0.05170113 29.49780198 0.6702798 42.875 3.3125 C44.32398682 3.57788574 44.32398682 3.57788574 45.80224609 3.84863281 C58.47517977 6.17176993 70.7080933 9.11154533 82.80761719 13.55517578 C84.85723625 14.30599278 86.91529812 15.02795358 88.9765625 15.74609375 C105.8534748 21.72757788 121.24504521 30.39602561 136.3125 40 C136.89209473 40.36859131 137.47168945 40.73718262 138.06884766 41.11694336 C141.50686681 43.33539153 144.70347584 45.73153551 147.875 48.3125 C148.803125 48.910625 149.73125 49.50875 150.6875 50.125 C154.71213778 52.88700632 158.24546551 56.05819934 161.875 59.3125 C163.24809798 60.52299427 164.62306704 61.73136979 166 62.9375 C166.66128906 63.51886719 167.32257813 64.10023437 168.00390625 64.69921875 C169.61543571 66.08870031 171.27262954 67.42489903 172.9375 68.75 C175.93698619 71.36657306 178.4480907 74.12105141 181.0234375 77.14453125 C182.93547863 79.38331359 184.90068472 81.56605665 186.875 83.75 C190.75706913 88.12196695 194.36438778 92.63860799 197.875 97.3125 C198.29185059 97.86212402 198.70870117 98.41174805 199.13818359 98.97802734 C205.3066142 107.1287762 211.00872337 115.30048985 215.875 124.3125 C216.27106445 125.04581543 216.66712891 125.77913086 217.07519531 126.53466797 C218.41199926 129.01908666 219.73958461 131.50815938 221.0625 134 C221.47894775 134.78407227 221.89539551 135.56814453 222.32446289 136.37597656 C232.49684925 155.77097327 239.19561148 176.40227869 243.5625 197.8125 C243.86619507 199.28771118 243.86619507 199.28771118 244.17602539 200.79272461 C247.19664684 216.20557461 248.25714508 231.3257595 248.1875 247 C248.18534485 247.87845581 248.1831897 248.75691162 248.18096924 249.6619873 C248.12814677 263.11187108 247.48933474 276.0904962 244.875 289.3125 C244.57698486 290.93406006 244.57698486 290.93406006 244.27294922 292.58837891 C241.46217014 307.78764044 237.68496098 321.99128362 231.71777344 336.25195312 C230.65886565 338.84093973 229.7617061 341.47272866 228.875 344.125 C222.44958218 361.88608943 211.72188732 377.99574153 200.875 393.3125 C199.91207031 394.72595703 199.91207031 394.72595703 198.9296875 396.16796875 C195.8627148 400.66221229 192.82788964 404.5478432 188.875 408.3125 C184.90631827 412.60827089 180.94761338 416.91606042 177.3125 421.5 C171.84281698 427.81117272 165.0490833 432.85144113 158.5859375 438.1015625 C156.70820587 439.63296898 154.84856026 441.18671942 153.00390625 442.7578125 C122.58111818 468.13291719 84.02604728 484.21479645 45.29980469 490.87304688 C42.85558755 491.31601817 40.43569655 491.83489785 38.0078125 492.359375 C25.86672831 494.76173992 13.51969796 494.49878774 1.1953125 494.49780273 C-1.85430961 494.49998519 -4.90356674 494.51818481 -7.953125 494.53710938 C-24.44296919 494.58734059 -39.62957665 493.01665553 -55.6875 489 C-56.94820312 488.68949707 -58.20890625 488.37899414 -59.5078125 488.05908203 C-68.21671588 485.8784789 -76.71016925 483.45754299 -85.125 480.3125 C-86.73375 479.74982422 -86.73375 479.74982422 -88.375 479.17578125 C-95.84863993 476.47197642 -102.70503206 473.02774112 -109.6484375 469.20703125 C-112.38571051 467.71537124 -115.12142228 466.33062092 -117.9375 465 C-122.91142245 462.54239582 -127.63391156 459.68624708 -132.375 456.8125 C-133.14432861 456.34932373 -133.91365723 455.88614746 -134.70629883 455.40893555 C-139.17886399 452.66649447 -143.16105353 449.74638386 -147.125 446.3125 C-148.36624353 445.38401075 -149.61514861 444.46557932 -150.875 443.5625 C-155.04758093 440.46491607 -158.8593008 437.03281616 -162.69140625 433.52734375 C-164.78433496 431.62254346 -166.90953711 429.77346222 -169.0625 427.9375 C-177.97533263 420.13877145 -185.82174539 411.62518899 -193.125 402.3125 C-193.75277344 401.52875 -194.38054687 400.745 -195.02734375 399.9375 C-199.02105344 394.90385277 -202.66157988 389.72262805 -206.125 384.3125 C-206.50060059 383.73048828 -206.87620117 383.14847656 -207.26318359 382.54882812 C-212.75319295 374.02074164 -217.75348953 365.47814431 -222.125 356.3125 C-222.95801444 354.72899887 -223.79134152 353.14566216 -224.625 351.5625 C-227.73910407 345.33429187 -230.05011807 338.80243917 -232.40625 332.26171875 C-233.03858841 330.54684446 -233.71877915 328.84977576 -234.40625 327.15625 C-239.31921194 314.68488507 -241.61027066 301.43175988 -244.125 288.3125 C-244.40053711 286.92877197 -244.40053711 286.92877197 -244.68164062 285.51708984 C-249.99847748 258.00616609 -248.81234688 227.61257118 -243.125 200.3125 C-242.87830566 199.11415527 -242.63161133 197.91581055 -242.37744141 196.68115234 C-239.216627 181.72694939 -235.26706696 167.49380544 -229.07348633 153.50830078 C-228.0525003 151.144659 -227.11909879 148.75565372 -226.1875 146.35546875 C-224.19361538 141.33908137 -221.84382176 136.57699482 -219.3125 131.8125 C-218.87599121 130.98588867 -218.43948242 130.15927734 -217.98974609 129.30761719 C-215.16874172 124.04685325 -212.13379629 119.0990536 -208.5703125 114.30078125 C-207.25928649 112.49723466 -206.17850154 110.71092934 -205.125 108.75 C-202.5130792 104.26076113 -199.38434122 100.34633814 -196.125 96.3125 C-195.44308594 95.45527344 -194.76117188 94.59804687 -194.05859375 93.71484375 C-180.84811624 77.29036813 -166.28706264 62.39980563 -149.26171875 49.8984375 C-147.6431365 48.69707663 -146.0449995 47.46810722 -144.45703125 46.2265625 C-137.05762319 40.49861914 -129.33566337 35.75504759 -121.125 31.3125 C-120.49625977 30.96799805 -119.86751953 30.62349609 -119.21972656 30.26855469 C-99.98681391 19.73277097 -79.88687262 11.12857634 -58.31591797 6.75683594 C-55.93721029 6.27441472 -53.56465047 5.76639768 -51.19140625 5.2578125 C-49.48209604 4.89948685 -47.77246466 4.54268943 -46.0625 4.1875 C-45.3082373 4.02862305 -44.55397461 3.86974609 -43.77685547 3.70605469 C-29.16478133 0.77438195 -14.85930084 -0.06238736 0 0 Z M-18.125 45.3125 C-18.125 86.2325 -18.125 127.1525 -18.125 169.3125 C-57.725 169.3125 -97.325 169.3125 -138.125 169.3125 C-138.125 181.1925 -138.125 193.0725 -138.125 205.3125 C-98.855 205.6425 -59.585 205.9725 -19.125 206.3125 C-18.795 286.5025 -18.465 366.6925 -18.125 449.3125 C-5.915 449.3125 6.295 449.3125 18.875 449.3125 C18.875 368.7925 18.875 288.2725 18.875 205.3125 C58.475 205.3125 98.075 205.3125 138.875 205.3125 C138.875 193.4325 138.875 181.5525 138.875 169.3125 C99.275 169.3125 59.675 169.3125 18.875 169.3125 C18.875 128.3925 18.875 87.4725 18.875 45.3125 C6.665 45.3125 -5.545 45.3125 -18.125 45.3125 Z " fill="#020202" transform="translate(248.125,2.6875)"/>
<path d="M0 0 C0 3 0 3 -2.4140625 5.7421875 C-3.47674767 6.79421918 -4.54744528 7.83820385 -5.625 8.875 C-6.40810547 9.65037109 -6.40810547 9.65037109 -7.20703125 10.44140625 C-10.65780596 13.82401751 -14.25257619 16.95029473 -18 20 C-18.66 19.67 -19.32 19.34 -20 19 C-17.0457194 16.01679077 -14.08590637 13.03913197 -11.125 10.0625 C-10.28324219 9.21236328 -9.44148438 8.36222656 -8.57421875 7.48632812 C-7.76855469 6.67744141 -6.96289062 5.86855469 -6.1328125 5.03515625 C-5.38918457 4.2862915 -4.64555664 3.53742676 -3.87939453 2.76586914 C-2 1 -2 1 0 0 Z " fill="#4E4E4E" transform="translate(84,65)"/>
</svg>
